<?xml version="1.0" encoding="utf-8"?>
<!-- Generated by IcoMoon.io -->
<!DOCTYPE svg PUBLIC "-//W3C//DTD SVG 1.1//EN" "http://www.w3.org/Graphics/SVG/1.1/DTD/svg11.dtd">
<svg version="1.1" xmlns="http://www.w3.org/2000/svg" xmlns:xlink="http://www.w3.org/1999/xlink" width="752" height="32" viewBox="0 0 752 32">
<svg  id="icon-twitter" width="32" height="32" viewBox="0 0 32 32" x="0" y="0" >
<path  d="M32 7.076c-1.176 0.526-2.444 0.876-3.768 1.032 1.356-0.812 2.394-2.1 2.888-3.632-1.268 0.75-2.676 1.3-4.168 1.594-1.2-1.276-2.906-2.068-4.794-2.068-3.626 0-6.562 2.938-6.562 6.562 0 0.512 0.056 1.012 0.168 1.494-5.456-0.276-10.294-2.888-13.532-6.862-0.562 0.968-0.888 2.1-0.888 3.3 0 2.276 1.156 4.288 2.918 5.462-1.076-0.032-2.088-0.332-2.976-0.818 0 0.026 0 0.056 0 0.082 0 3.182 2.262 5.838 5.268 6.438-0.55 0.15-1.132 0.232-1.732 0.232-0.424 0-0.832-0.044-1.238-0.118 0.838 2.606 3.262 4.506 6.132 4.562-2.25 1.762-5.076 2.812-8.156 2.812-0.532 0-1.050-0.032-1.568-0.094 2.912 1.868 6.362 2.95 10.068 2.95 12.074 0 18.682-10.006 18.682-18.682 0-0.288-0.006-0.568-0.018-0.85 1.282-0.918 2.394-2.076 3.274-3.394z"></path>
</svg>
<svg id="icon-facebook" width="32" height="32" viewBox="0 0 32 32" x="48" y="0">
<path d="M19 6h5v-6h-5c-3.86 0-7 3.14-7 7v3h-4v6h4v16h6v-16h5l1-6h-6v-3c0-0.542 0.458-1 1-1z"></path>
</svg>
<svg id="icon-instagram" width="32" height="32" viewBox="0 0 32 32" x="96" y="0">
<path d="M29 0h-26c-1.65 0-3 1.35-3 3v26c0 1.65 1.35 3 3 3h26c1.65 0 3-1.35 3-3v-26c0-1.65-1.35-3-3-3zM22 5c0-0.55 0.45-1 1-1h4c0.55 0 1 0.45 1 1v4c0 0.55-0.45 1-1 1h-4c-0.55 0-1-0.45-1-1v-4zM16 10c3.312 0 6 2.688 6 6s-2.688 6-6 6c-3.312 0-6-2.688-6-6s2.688-6 6-6zM28 27v0c0 0.55-0.45 1-1 1h-22c-0.55 0-1-0.45-1-1v0-13h2.2c-0.132 0.644-0.2 1.312-0.2 2 0 5.524 4.474 10 10 10s10-4.476 10-10c0-0.688-0.068-1.356-0.2-2h2.2v13z"></path>
</svg>
</svg>
